<?xml version="1.0" standalone="no"?>
<!DOCTYPE svg PUBLIC "-//W3C//DTD SVG 20010904//EN"
 "http://www.w3.org/TR/2001/REC-SVG-20010904/DTD/svg10.dtd">
<svg version="1.0" xmlns="http://www.w3.org/2000/svg"
 width="16.000000pt" height="16.000000pt" viewBox="0 0 16.000000 16.000000"
 preserveAspectRatio="xMidYMid meet">
<metadata>
Created by potrace 1.11, written by Peter Selinger 2001-2013
</metadata>
<g transform="translate(0.000000,16.000000) scale(0.006250,-0.006250)"
fill="#000000" stroke="none">
<path d="M1180 2414 c-14 -2 -59 -9 -100 -15 -327 -49 -647 -277 -809 -579
-172 -321 -184 -701 -32 -1026 144 -306 427 -541 752 -624 133 -34 283 -41
864 -38 l550 3 0 660 c0 646 0 662 -22 741 -59 218 -142 370 -286 520 -146
153 -299 250 -487 309 -129 40 -331 63 -430 49z m338 -140 c407 -102 705 -428
772 -846 18 -109 9 -302 -19 -408 -30 -113 -106 -272 -176 -365 -326 -433
-938 -538 -1392 -239 -83 55 -223 193 -277 273 -67 101 -122 222 -152 336 -23
87 -27 119 -27 250 1 129 4 164 27 250 80 308 282 550 568 685 210 98 449 121
676 64z"/>
<path d="M1622 1599 c-22 -8 -23 -11 -20 -146 l3 -138 32 -3 c47 -5 54 18 51
154 -3 104 -5 118 -23 129 -13 9 -28 10 -43 4z"/>
</g>
</svg>
