<?xml version="1.0" encoding="UTF-8" standalone="no"?>
<svg
   version="1.1"
   width="500px"
   height="500px"
   style="shape-rendering:geometricPrecision; text-rendering:geometricPrecision; image-rendering:optimizeQuality; fill-rule:evenodd; clip-rule:evenodd"
   id="svg46"
   sodipodi:docname="logo_dark.svg"
   inkscape:version="1.1 (c68e22c387, 2021-05-23)"
   xmlns:inkscape="http://www.inkscape.org/namespaces/inkscape"
   xmlns:sodipodi="http://sodipodi.sourceforge.net/DTD/sodipodi-0.dtd"
   xmlns="http://www.w3.org/2000/svg"
   xmlns:svg="http://www.w3.org/2000/svg">
  <sodipodi:namedview
     id="namedview16"
     pagecolor="#ffffff"
     bordercolor="#666666"
     borderopacity="1.0"
     inkscape:pageshadow="2"
     inkscape:pageopacity="0.0"
     inkscape:pagecheckerboard="0"
     showgrid="false"
     inkscape:zoom="1.746"
     inkscape:cx="250.57274"
     inkscape:cy="250"
     inkscape:window-width="2560"
     inkscape:window-height="1377"
     inkscape:window-x="-8"
     inkscape:window-y="-8"
     inkscape:window-maximized="1"
     inkscape:current-layer="svg46" />
  <defs
     id="defs50" />
  <path
     style="fill:#ffffff;stroke:#000000;stroke-width:1px;stroke-linecap:butt;stroke-linejoin:miter;stroke-opacity:1"
     d="M 189.00344,40.664376 150.63001,103.66552 176.40321,206.7583 288.65979,230.24055 352.5,159.5 333.33333,64.146621 265.17755,22.909507 Z"
     id="path1467" />
  <g
     id="g4"
     style="fill:#501616">
    <path
       id="path2"
       style="opacity:0.987;fill:#262f31"
       d="M 251.59766 9.4707031 C 227.69296 9.1153461 205.99431 16.791856 186.5 32.5 C 153.715 61.9941 139.715 99.3274 144.5 144.5 C 147.912 158.917 152.078 173.251 157 187.5 C 180.293 241.116 211.293 289.783 250 333.5 C 261.813 319.866 273.146 305.866 284 291.5 C 314.129 251.276 336.962 207.276 352.5 159.5 C 352.63 155.475 353.63 151.809 355.5 148.5 C 355.667 134.496 355.5 120.496 355 106.5 C 354.333 103.167 353.667 99.8333 353 96.5 C 341.202 51.7025 313.035 23.2025 268.5 11 C 262.74863 10.062539 257.11412 9.5527086 251.59766 9.4707031 z M 258.5 68.5 C 260.167 69.3333 261.833 70.1667 263.5 71 C 279.174 86.0074 294.174 101.674 308.5 118 C 311.506 120.515 314.84 121.849 318.5 122 C 322.875 116.445 328.542 113.278 335.5 112.5 L 335.5 117.5 C 329.565 118.44 324.565 121.107 320.5 125.5 C 322.266 128.642 324.766 129.642 328 128.5 C 334.102 130.79 335.602 134.29 332.5 139 C 324.397 133.282 315.73 128.615 306.5 125 C 292.16 113.804 279.994 100.638 270 85.5 C 266.479 80.9634 262.146 77.63 257 75.5 C 253.206 76.4524 250.039 78.4524 247.5 81.5 C 237.315 92.5177 227.315 103.684 217.5 115 C 200.213 123.958 182.713 132.458 165 140.5 C 162.681 139.591 162.014 137.925 163 135.5 C 166.268 133.474 169.768 131.974 173.5 131 C 174.386 129.385 175.386 127.885 176.5 126.5 C 178.963 124.539 181.297 122.372 183.5 120 C 187.773 118.97 192.106 118.303 196.5 118 C 198.373 115.791 200.54 113.958 203 112.5 C 203.269 109.72 202.102 107.554 199.5 106 C 195.198 105.616 192.532 107.616 191.5 112 C 184.729 114.372 179.062 118.205 174.5 123.5 C 170.575 126.629 166.241 128.962 161.5 130.5 L 161.5 126.5 C 165.139 124.345 168.806 122.178 172.5 120 C 178.167 111.667 185.167 104.667 193.5 99 C 198.748 97.524 203.081 98.8574 206.5 103 C 210.29 105.841 214.29 106.508 218.5 105 C 226.766 94.7313 235.766 85.0646 245.5 76 C 249.466 72.8684 253.799 70.3684 258.5 68.5 z M 260.62891 89.392578 C 262.77008 89.440531 265.39438 90.309625 268.5 92 C 277.198 100.097 285.198 108.763 292.5 118 C 302.37 124.198 311.37 131.531 319.5 140 C 324.03 142.427 328.363 145.094 332.5 148 C 324.584 174.41 308.251 193.577 283.5 205.5 C 278.607 206.796 273.94 208.462 269.5 210.5 C 267.139 210.674 264.806 211.007 262.5 211.5 C 254.529 212.323 246.529 212.656 238.5 212.5 C 201.738 206.241 177.404 185.408 165.5 150 C 168.167 149.667 170.833 149.333 173.5 149 C 181.5 143.667 189.5 138.333 197.5 133 C 201.5 131.333 205.5 129.667 209.5 128 C 216.233 127.383 220.067 130.55 221 137.5 C 227.646 142.6 231.646 140.933 233 132.5 C 234.731 130.383 236.898 128.883 239.5 128 C 244.5 127.667 249.5 127.333 254.5 127 C 257.937 125.494 259.27 122.827 258.5 119 C 257.669 112.699 256.002 106.699 253.5 101 C 253.54263 93.156175 255.91833 89.287081 260.62891 89.392578 z " />
  </g>
  <g
     id="g8">
    <path
       style="opacity:1;fill:#f5e7d3"
       fill="#f5e7d3"
       d="M 335.5,112.5 C 328.542,113.278 322.875,116.445 318.5,122C 314.84,121.849 311.506,120.515 308.5,118C 294.174,101.674 279.174,86.0074 263.5,71C 261.833,70.1667 260.167,69.3333 258.5,68.5C 253.799,70.3684 249.466,72.8684 245.5,76C 235.766,85.0646 226.766,94.7313 218.5,105C 214.29,106.508 210.29,105.841 206.5,103C 203.081,98.8574 198.748,97.524 193.5,99C 185.167,104.667 178.167,111.667 172.5,120C 168.806,122.178 165.139,124.345 161.5,126.5C 162.434,84.7745 182.101,55.9412 220.5,40C 265.955,28.8158 301.122,42.9825 326,82.5C 330.403,92.1153 333.57,102.115 335.5,112.5 Z"
       id="path6" />
  </g>
  <g
     id="g44"
     style="fill:#262f31">
    <path
       style="opacity:0.936;fill:#262f31'"
       fill="#262f31"
       d="m 191.5,263.5 c 4.66,6.92 9.326,13.92 14,21 v 23 c 5.297,-0.775 10.63,-1.108 16,-1 4.008,5.006 8.008,10.006 12,15 -9.636,1.053 -19.302,1.72 -29,2 -0.568,18.662 -0.902,37.328 -1,56 32.35,-1.434 64.683,-3.101 97,-5 -2.831,-18.99 -5.05752,-38.79997 -7.89252,-57.80997 -0.414,-0.457 -1.52148,0.019 -2.10748,-0.19003 -6.945,1.051 -13.945,1.718 -21,2 3.281,-5.556 7.281,-10.556 12,-15 h 8 c -0.116,-3.36 -0.449,-6.693 -1,-10 2.978,-4.969 6.311,-9.635 10,-14 1.224,7.62 2.89,15.12 5,22.5 -5.42605,-23.89031 -5,-22.5 -5,-22.5 0,0 9.29583,-0.87606 0,0 2.308,-4.295 6.974,-12.295 10,-16 13.337,-0.167 26.671,0 40,0.5 33.686,65.203 67.519,130.37 101.5,195.5 2.13,4.587 3.963,9.253 5.5,14 -135,0.167 -270,0 -405,-0.5 0.3333,-0.333 0.6667,-0.667 1,-1 -0.948,-0.483 -1.948,-0.649 -3,-0.5 -0.1567,-1.373 0.01,-2.707 0.5,-4 33.6791,-67.359 66.846,-135.026 99.5,-203 14.318,-0.999 28.651,-1.333 43,-1 z m -33,11 h 35 c -0.565,11.007 -1.231,22.007 -2,33 -15.995,1.233 -31.995,2.066 -48,2.5 5.142,-11.782 10.142,-23.615 15,-35.5 z m 145.66523,-3.69805 35.51462,-0.69136 c 3.156,8.3 8.79859,21.71867 11.64259,30.08567 -15.365,0.369 -32.52044,1.17274 -47.82244,1.80374 -2.11,-7.38 -3.776,-14.88 -5,-22.5 3.72889,-6.75983 4.82023,-7.52705 5.66523,-8.69805 z M 205.5,307.5 c -137,-205 -68.5,-102.5 0,0 z m 84,-4 h -8 c 8,0 7.98665,-0.45224 8,0 z m 60,8 c 2.104,-0.299 3.09153,-0.26974 5.49377,0.19003 8.139,19.083 16.97823,38.89297 25.50623,57.80997 -1.923,0.808 -3.923,1.308 -6,1.5 -15.838,0.75 -31.671,1.584 -47.5,2.5 -2.5,-0.333 -5,-0.667 -7.5,-1 -4.717,-18.917 -9.05,-37.917 -13,-57 14.514,-0.958 28.847,-2.291 43,-4 z m -80,7 c 7.055,-0.282 14.055,-0.949 21,-2 0,0 -4.54994,0.43455 -21,2 z m -89,7 h 9 c -0.824,18.382 -2.158,36.716 -4,55 -24.164,1.41 -48.164,2.41 -72,3 7.645,-17.961 14.978,-35.961 22,-54 15.189,-0.848 30.189,-2.182 45,-4 z m 198,59 c 2.747,-0.313 5.414,0.02 8,1 8.111,17.855 16.111,35.688 24,53.5 -25.34,0.833 -50.673,0.666 -76,-0.5 -4.141,-16.232 -7.808,-32.565 -11,-49 18.513,-1.292 36.847,-2.958 55,-5 z m -84,7 h 9 c 2.117,16.035 4.45,32.035 7,48 -36.319,-0.947 -72.653,-1.28 -109,-1 0.367,-12.999 0.7,-25.999 1,-39 30.86,-2.127 61.527,-4.793 92,-8 z m -119,10 h 9 c -1.254,12.301 -2.254,24.635 -3,37 -30.002,0.167 -60.002,0 -90,-0.5 4.0165,-10.061 8.0165,-20.061 12,-30 24.181,-1.847 48.181,-4.014 72,-6.5 z"
       id="path42" />
  </g>
</svg>
